<svg xmlns="http://www.w3.org/2000/svg" viewBox="0 0 180 320" xml:space="preserve">
  <path fill="#E84667" d="M12 247.9V6.5C12 3.7 13.7 2 16.5 2h94.9c2.4 0 4.5 1.7 4.5 4.5v31.6c0 2.8-2.1 4.5-4.5 4.5H54.1v57.7H99c2.4 0 4.5 1.7 4.5 4.2v31.6c0 2.4-2.1 4.5-4.5 4.5H54.1v107.1c0 2.8-1.7 4.5-4.2 4.5H16.5c-2.8.2-4.5-1.5-4.5-4.3z"/>
  <path fill="#F19599" d="M21.3 257.2V15.8c0-2.8 1.7-4.5 4.5-4.5h94.9c2.4 0 4.5 1.7 4.5 4.5v31.6c0 2.8-2.1 4.5-4.5 4.5H63.3v57.7h44.9c2.4 0 4.5 1.7 4.5 4.2v31.6c0 2.4-2.1 4.5-4.5 4.5H63.3V257c0 2.8-1.7 4.5-4.2 4.5H25.8c-2.8.2-4.5-1.6-4.5-4.3z"/>
  <path fill="#FAD0B1" d="M30.5 266.4V25.1c0-2.8 1.7-4.5 4.5-4.5h95c2.4 0 4.5 1.7 4.5 4.5v31.6c0 2.8-2.1 4.5-4.5 4.5H72.6V119h44.9c2.4 0 4.5 1.7 4.5 4.2v31.6c0 2.4-2.1 4.5-4.5 4.5H72.6v107.1c0 2.8-1.7 4.5-4.2 4.5H35.1c-2.8 0-4.6-1.7-4.6-4.5z"/>
  <path fill="#CDC6AA" d="M39.8 275.7V34.3c0-2.8 1.7-4.5 4.5-4.5h94.9c2.4 0 4.5 1.7 4.5 4.5V66c0 2.8-2.1 4.5-4.5 4.5H81.9v57.7h44.9c2.4 0 4.5 1.7 4.5 4.2V164c0 2.4-2.1 4.5-4.5 4.5H81.9v107.1c0 2.8-1.7 4.5-4.2 4.5H44.3c-2.8.1-4.5-1.6-4.5-4.4z"/>
  <path fill="#83AE9B" d="M49.1 285V43.6c0-2.8 1.7-4.5 4.5-4.5h94.9c2.4 0 4.5 1.7 4.5 4.5v31.6c0 2.8-2.1 4.5-4.5 4.5H91.2v57.7H136c2.4 0 4.5 1.7 4.5 4.2v31.6c0 2.4-2.1 4.5-4.5 4.5H91.2V285c0 2.8-1.7 4.5-4.2 4.5H53.6c-2.8 0-4.5-1.8-4.5-4.5z"/>
  <path fill="#575756" d="M58.3 294.2V52.9c0-2.8 1.7-4.5 4.5-4.5h94.9c2.4 0 4.5 1.7 4.5 4.5v31.6c0 2.8-2.1 4.5-4.5 4.5h-57.4v57.7h44.9c2.4 0 4.5 1.7 4.5 4.2v31.6c0 2.4-2.1 4.5-4.5 4.5h-44.9v107.1c0 2.8-1.7 4.5-4.2 4.5H62.9c-2.8.1-4.6-1.6-4.6-4.4z"/>
  <path fill="#FFF" stroke="#FFF" stroke-width="1.216" d="M67.8 303.7V62.3c0-2.8 1.7-4.5 4.5-4.5h94.9c2.4 0 4.5 1.7 4.5 4.5V94c0 2.8-2.1 4.5-4.5 4.5h-57.4v57.7h44.9c2.4 0 4.5 1.7 4.5 4.2V192c0 2.4-2.1 4.5-4.5 4.5h-44.9v107.1c0 2.8-1.7 4.5-4.2 4.5H72.3c-2.8.1-4.5-1.6-4.5-4.4z"/>
</svg>