<svg version="1.1" id="Layer_1" xmlns="http://www.w3.org/2000/svg" x="0" y="0" viewBox="0 0 810 224.3" xml:space="preserve">
  <style>
    .st2{fill:#fff}
  </style>
  <path d="M450 117.3c0 7-5.4 10.5-13.4 10.5h-20.4c-3 0-8 .4-8.8 7.2h-4.8c-.8-6.8-5.8-7.2-8.7-7.2h-20.5c-8 0-13.4-3.5-13.4-10.5V133h-90v-17l-45 17-45-17c-24.7 25.2-65.3 25.2-90 0V0h540v116l-45 17-45-17s-16 18.6-44.5 19h-1c-29 0-44.5-19-44.5-19v1.3zM90 0v117.3c0 7-5.5 10.5-13.4 10.5H56c-2.9 0-7.8.4-8.7 7.2h-4.8c-.9-6.8-5.8-7.2-8.7-7.2H13.4c-8 0-13.4-3.5-13.4-10.5V0h90zm720 0v117.3c0 7-5.5 10.5-13.4 10.5H776c-2.9 0-7.8.4-8.7 7.2h-4.8c-.9-6.8-5.8-7.2-8.7-7.2h-20.5c-8 0-13.4-3.5-13.4-10.5V133h-90l.1-17V0h180z" fill-rule="evenodd" clip-rule="evenodd" fill="#ffce2e"/>
  <path d="M24 94.9h12.4V66.6h25.9V55.3H36.4V39.4H68V27.9H24v67zm118.3-34.4h-18V39.3h10.8c5.8 0 11.5 4.8 11.5 11.9 0 4.9-1.7 7.3-4.3 9.3m16.7-8.6c0-13.3-10.6-24-24-24h-23v67h12.3V72H135l11.5 23h13.4l-12.7-24.7c7-3.5 11.5-10.5 11.8-18.3m523.3 8.5h-18V39.3h10.8c5.8 0 11.5 4.8 11.5 11.9 0 4.9-1.7 7.3-4.3 9.3m16.7-8.6c0-13.3-10.6-24-24-24h-23v67h12.3V72H675l11.5 23h13.4l-12.7-24.7c7-3.5 11.5-10.5 11.8-18.3M226 84.6c-10.6 0-18-10.8-18-22.7 0-12 7.4-22.7 18-22.7s18 10.7 18 22.7c0 11.9-7.4 22.7-18 22.7m0-57.2c-17 0-30.8 15.2-30.8 34.5 0 19.2 13.8 34.5 30.8 34.5s30.8-15.3 30.8-34.5c0-19.3-13.7-34.5-30.8-34.5m155 12h18.9v55.5h12.2V39.4H431V27.9h-50v11.5zm383.6 10.5c-3.5-2-4.7-3.7-4.7-6 0-2.5 2.5-5.4 6.4-5.4 3.4 0 6.2 2.8 7.6 4l10.6-5.6s-5-9.7-17.8-9.7c-11.8 0-20.1 8.1-20.1 17.2s5.9 13 12 16.4l11.1 6.3c4.7 2.6 7.6 5.2 7.6 9 0 5.2-4.8 8.6-9.6 8.6-5.7 0-10.7-3.6-14.9-9.5l-11 5.9c2 4 9 15 24.2 15 13.3 0 24.1-9 24.1-20.1 0-9.9-5.4-15-14.3-19.9l-11.2-6.2zM329.4 72.2l-26.8-44.3H291v67h11.6V50.7l26.8 44.2H341v-67h-11.6v44.3zm157.2-5.6h25.9V55.3h-25.9V39.4h30.6V27.9h-43v67h44V83.5h-31.6V66.6zm90 0h25.9V55.3h-25.9V39.4h30.6V27.9h-43v67h44V83.5h-31.6V66.6z" fill-rule="evenodd" clip-rule="evenodd"/>
  <path class="st2" d="M58.4 193.2c-.1.3-.3.8-.6 1.3s-1 1.5-2 2.9-2.2 2.6-3.4 3.6c-1.2 1.1-2.9 2-5 2.9-2.1.9-4.4 1.3-6.8 1.3-5.6 0-10.3-2.2-14.3-6.6-3.9-4.4-5.9-9.7-5.9-16 0-6.3 2-11.6 5.9-16 3.9-4.4 8.7-6.6 14.3-6.6 2.4 0 4.6.4 6.7 1.2 2.1.8 3.8 1.8 5.1 3 1.3 1.2 2.4 2.3 3.3 3.5.9 1.2 1.6 2.1 2 3l.6 1.2-7.1 3.8c-.1-.2-.2-.5-.4-.9s-.6-1-1.3-2c-.7-.9-1.4-1.7-2.1-2.4-.7-.7-1.7-1.3-2.9-1.9-1.2-.6-2.5-.9-3.8-.9-3.1 0-5.9 1.5-8.2 4.5-2.4 3-3.5 6.5-3.5 10.4 0 3.9 1.2 7.4 3.5 10.4 2.4 3 5.1 4.5 8.2 4.5 1.4 0 2.7-.3 3.9-.8 1.2-.6 2.2-1.2 3-2 .8-.8 1.5-1.6 2.1-2.4.6-.8 1-1.4 1.3-2l.4-.9 7 3.9zM137.9 198.6c-3.9 4.4-8.7 6.6-14.3 6.6s-10.3-2.2-14.3-6.6c-3.9-4.4-5.9-9.7-5.9-16 0-6.3 2-11.6 5.9-16 3.9-4.4 8.7-6.6 14.3-6.6s10.3 2.2 14.3 6.6c3.9 4.4 5.9 9.7 5.9 16.1 0 6.2-2 11.5-5.9 15.9zm-22.7-5.6c2.2 3 5 4.4 8.4 4.4 3.4 0 6.2-1.5 8.4-4.4 2.2-3 3.3-6.4 3.3-10.4s-1.1-7.5-3.3-10.4c-2.2-3-5-4.4-8.4-4.4-3.4 0-6.2 1.5-8.4 4.4-2.2 3-3.3 6.4-3.3 10.4s1.1 7.5 3.3 10.4zM218 160.9h7.8v43.4H218l-18-28.6v28.6h-7.8v-43.4h7.8l18 28.6v-28.6zM304.6 168.3h-20.5v10.3h16.7v7.3h-16.7v18.4H276v-43.4h28.5v7.4zM361.2 196.8h20.5v7.4h-28.5v-43.4H381v7.4h-19.8v10.3h16.7v7.3h-16.7v11zM454.2 204.3l-7.4-14.9h-6.9v14.9H432v-43.4h14.9c4.3 0 8 1.5 11 4.5s4.5 6.7 4.5 11c0 2.3-.7 4.6-2.1 6.8-1.4 2.2-3.3 3.9-5.6 5.1l8.2 16h-8.7zm-14.3-36V182h11.6c1.9-1.4 2.8-3.5 2.8-6 0-2.2-.7-4.1-2.2-5.5s-3.2-2.2-5.2-2.2h-7zM519.5 196.8H540v7.4h-28.5v-43.4h27.9v7.4h-19.8v10.3h16.7v7.3h-16.7v11zM615.4 160.9h7.8v43.4h-7.8l-18-28.6v28.6h-7.8v-43.4h7.8l18 28.6v-28.6zM710.2 193.2c-.1.3-.3.8-.6 1.3s-1 1.5-2 2.9-2.2 2.6-3.4 3.6-2.9 2-5 2.9c-2.1.9-4.4 1.3-6.8 1.3-5.6 0-10.3-2.2-14.3-6.6-3.9-4.4-5.9-9.7-5.9-16 0-6.3 2-11.6 5.9-16 3.9-4.4 8.7-6.6 14.3-6.6 2.4 0 4.6.4 6.7 1.2 2.1.8 3.8 1.8 5.1 3s2.4 2.3 3.3 3.5c.9 1.2 1.6 2.1 2 3l.6 1.2-7.1 3.8c-.1-.2-.2-.5-.4-.9s-.6-1-1.3-2c-.7-.9-1.4-1.7-2.1-2.4-.7-.7-1.7-1.3-2.9-1.9-1.2-.6-2.5-.9-3.8-.9-3.1 0-5.9 1.5-8.2 4.5-2.4 3-3.5 6.5-3.5 10.4 0 3.9 1.2 7.4 3.5 10.4 2.4 3 5.1 4.5 8.2 4.5 1.4 0 2.7-.3 3.9-.8 1.2-.6 2.2-1.2 3-2s1.5-1.6 2.1-2.4c.6-.8 1-1.4 1.3-2l.4-.9 7 3.9zM767 196.8h20.5v7.4H759v-43.4h27.9v7.4H767v10.3h16.7v7.3H767v11z"/>
</svg>
