<svg xmlns="http://www.w3.org/2000/svg" width="1280" height="403" aria-hidden="true" viewBox="0 0 1280 403"><defs><clipPath id="b"><path fill="none" d="M0 385.205h256.414V0H0Z" data-name="Path 76"/></clipPath><clipPath id="c"><path fill="none" d="M0 0v321.372l.169 13.868s43.816 49.965 126.844 49.965c82.759 0 129.4-49.966 129.4-49.966V-.001Z" data-name="Path 78"/></clipPath><clipPath id="d"><path fill="#fe796a" d="M0 387.1h256.922V0H0Z" data-name="Path 70"/></clipPath><clipPath id="e"><path fill="none" d="M0 385.887h256.491V0H0Z" data-name="Path 60"/></clipPath><clipPath id="a"><path d="M0 0h1280v403H0z"/></clipPath></defs><g clip-path="url(#a)" data-name="Header component - desktop"><path fill="transparent" d="M0 0h1280v403H0z"/><g clip-path="url(#b)" data-name="Group 78" transform="translate(-.795 .24)"><g data-name="Group 77"><path fill="#646ee0" d="M256.414 335.238s-46.642 49.967-129.402 49.967C43.984 385.205.168 335.239.168 335.239L0 321.372V-.001h256.414v335.24Z" data-name="Path 75"/></g></g><g clip-path="url(#c)" transform="translate(-.795 .24)"><g data-name="Group 79"><path fill="#fd796a" d="M0-.002v385.2L256.414-.002Z" data-name="Path 77"/></g></g><g clip-path="url(#d)" transform="translate(766.938 .543)"><g data-name="Group 70"><path fill="#fe796a" d="M0 0v336.537c0 19.952 15.585 30.068 38.272 30.068H94.3c7.65 0 24.594-.822 27.334 20.5h13.656c2.74-21.318 19.684-20.5 27.334-20.5h56.026c22.687 0 38.273-10.116 38.273-30.068V0Z" data-name="Path 68"/></g><path fill="#ffce2e" d="M127.816 192.691a63.372 63.372 0 0 0 63.371-63.371 63.372 63.372 0 0 0-63.371-63.371 63.372 63.372 0 0 0-63.371 63.371 63.372 63.372 0 0 0 63.371 63.371" data-name="Path 69"/></g><g clip-path="url(#e)" data-name="Group 45" transform="translate(511.16 .14)"><g data-name="Group 43"><path fill="#636ddf" d="M256.491 335.906s-46.656 49.977-129.44 49.977C44 385.883.169 335.906.169 335.906L0 322.035V.566h256.491v335.34Z" data-name="Path 58"/></g></g><path fill="#b7b7fc" d="M1023.859 387.644h256.14V.425h-256.14Z" data-name="Path 63"/><path fill="#636ddf" d="M1023.859.425v387.219l128.07-194.253Z" data-name="Path 64"/><path fill="#636ddf" d="m1280 .425-128.071 192.966 128.07 194.253Z" data-name="Path 65"/><g data-name="Group 47"><path fill="#fd796a" d="M511.396-.411v335.537l-127.461 49.841V-.411Z" data-name="Path 61"/></g><path fill="#b7b7fd" d="M383.935-.411v385.378l-128.316-49.841V-.411Z" data-name="Path 62"/></g></svg>