<svg xmlns="http://www.w3.org/2000/svg" viewBox="0 150 841.8 300">
<path fill="#fff"
          d="M106.6 406.6v-24.8c0-.3.2-.5.5-.5h9.8c.2 0 .5.2.5.5v3.3c0 .3-.2.5-.5.5H111v5.9h4.6c.2 0 .5.2.5.4v3.3c0 .2-.2.5-.5.5H111v11c0 .3-.2.5-.4.5H107c-.2-.2-.4-.3-.4-.6zM119.8 406.6v-24.8c0-.3.2-.5.5-.5h7.4c2 0 3.8 1.7 3.8 3.8v8.2c0 1.6-1 2.9-2.4 3.5l2.6 9.8c.1.3 0 .5-.2.5h-3.7c-.3 0-.4-.2-.4-.5l-2.5-9.5h-.6v9.5c0 .3-.2.5-.4.5h-3.4c-.6-.1-.7-.2-.7-.5zm6.3-13.6c.5 0 .9-.4.9-.9v-5.7c0-.5-.4-.9-.9-.9h-2v7.6h2zM134.6 403.4v-18.5c0-2.1 1.7-3.8 3.8-3.8h4.1c2.1 0 3.8 1.6 3.8 3.8v18.5c0 2.1-1.7 3.8-3.8 3.8h-4.1a3.8 3.8 0 0 1-3.8-3.8zm6.4-.2c.5 0 .9-.4.9-.9v-16c0-.5-.4-.9-.9-.9h-1.1c-.5 0-1 .4-1 .9v16c0 .5.4.9 1 .9h1.1zM150 406.6v-24.8c0-.3.2-.5.5-.5h2.6c.3 0 .4.2.5.5l4 11.7v-11.7c0-.3.2-.5.4-.5h3.5c.2 0 .4.2.4.5v24.8c0 .3-.2.5-.4.5H159c-.2 0-.4-.2-.5-.5l-4.1-11.3v11.3c0 .3-.2.5-.4.5h-3.4c-.4-.1-.6-.2-.6-.5zM168.3 406.6v-21.1H165c-.2 0-.5-.2-.5-.4v-3.3c0-.3.2-.5.5-.5h10.9c.2 0 .5.2.5.5v3.3c0 .2-.2.4-.5.4h-3.3v21.1c0 .3-.2.5-.4.5h-3.5c-.2-.1-.4-.2-.4-.5zM179.1 406.6v-24.8c0-.3.2-.5.5-.5h9.8c.2 0 .5.2.5.5v3.3c0 .3-.2.5-.5.5h-5.9v5.9h4.6c.3 0 .5.2.5.4v3.3c0 .2-.2.5-.5.5h-4.6v7.3h6.1c.2 0 .4.2.4.5v3.2c0 .3-.2.5-.4.5h-10c-.3-.2-.5-.3-.5-.6zM192.8 406.6v-24.8c0-.3.2-.5.5-.5h9.8c.2 0 .5.2.5.5v3.3c0 .3-.2.5-.5.5h-5.9v5.9h4.6c.3 0 .5.2.5.4v3.3c0 .2-.2.5-.5.5h-4.6v7.3h6.1c.2 0 .4.2.4.5v3.2c0 .3-.2.5-.4.5h-10c-.3-.2-.5-.3-.5-.6zM206.5 406.6v-24.8c0-.3.2-.5.5-.5h7.4c2 0 3.8 1.7 3.8 3.8v8.2c0 1.6-1 2.9-2.4 3.5l2.6 9.8c.1.3 0 .5-.2.5h-3.7c-.3 0-.4-.2-.4-.5l-2.5-9.5h-.6v9.5c0 .3-.2.5-.4.5H207c-.3-.1-.5-.2-.5-.5zm6.3-13.6c.5 0 .9-.4.9-.9v-5.7c0-.5-.4-.9-.9-.9h-2v7.6h2zM221 403.4v-3.6c0-.3.2-.5.5-.5h3.4c.3 0 .5.2.5.5v2.4c0 .5.4.9.9.9h.9c.5 0 .9-.4.9-.9v-5.5c0-.5-.4-.9-.9-.9h-2.4a3.8 3.8 0 0 1-3.8-3.8v-7.1c0-2.1 1.7-3.8 3.8-3.8h3.9c2 0 3.8 1.6 3.8 3.8v2.4c0 .3-.2.5-.5.5h-3.4c-.2 0-.5-.2-.5-.5v-1c0-.5-.4-.9-.9-.9h-.8c-.5 0-.9.4-.9.9v4.5c0 .5.4.9.9.9h2.5c2.1 0 3.8 1.6 3.8 3.8v8c0 2.1-1.7 3.8-3.8 3.8h-4a4 4 0 0 1-3.9-3.9zM245.5 403.4v-18.5c0-2.1 1.7-3.8 3.8-3.8h3.9c2.1 0 3.8 1.6 3.8 3.8v2.4c0 .3-.2.5-.4.5H253c-.3 0-.5-.2-.5-.5v-1c0-.5-.4-.9-.9-.9h-.9c-.5 0-1 .4-1 .9v16c0 .5.4.9 1 .9h1c.5 0 .9-.4.9-.9v-2.8c0-.3.2-.5.5-.5h3.4c.3 0 .5.2.5.5v4c0 2.1-1.7 3.8-3.8 3.8h-4.1a4 4 0 0 1-3.6-3.9zM260.3 403.4v-18.5c0-2.1 1.7-3.8 3.8-3.8h4.1c2.1 0 3.8 1.6 3.8 3.8v18.5c0 2.1-1.7 3.8-3.8 3.8H264c-2 0-3.7-1.7-3.7-3.8zm6.3-.2c.5 0 .9-.4.9-.9v-16c0-.5-.4-.9-.9-.9h-1.1c-.5 0-1 .4-1 .9v16c0 .5.4.9 1 .9h1.1zM275.6 406.6v-24.8c0-.3.2-.5.5-.5h2.6c.3 0 .4.2.5.5l4 11.7v-11.7c0-.3.2-.5.4-.5h3.5c.2 0 .4.2.4.5v24.8c0 .3-.2.5-.4.5h-2.5c-.2 0-.4-.2-.5-.5l-4.1-11.3v11.3c0 .3-.2.5-.4.5h-3.4c-.4-.1-.6-.2-.6-.5zM291.4 406.6v-24.8c0-.3.2-.5.5-.5h9.8c.2 0 .5.2.5.5v3.3c0 .3-.2.5-.5.5h-5.9v5.9h4.6c.2 0 .5.2.5.4v3.3c0 .2-.2.5-.5.5h-4.6v11c0 .3-.2.5-.4.5H292c-.4-.2-.6-.3-.6-.6zM304.6 406.6v-24.8c0-.3.2-.5.5-.5h9.8c.2 0 .5.2.5.5v3.3c0 .3-.2.5-.5.5H309v5.9h4.6c.3 0 .5.2.5.4v3.3c0 .2-.2.5-.5.5H309v7.3h6.1c.2 0 .4.2.4.5v3.2c0 .3-.2.5-.4.5h-10c-.3-.2-.5-.3-.5-.6zM318.3 406.6v-24.8c0-.3.2-.5.5-.5h7.4c2 0 3.8 1.7 3.8 3.8v8.2c0 1.6-1 2.9-2.4 3.5l2.6 9.8c.1.3 0 .5-.2.5h-3.7c-.3 0-.4-.2-.4-.5l-2.5-9.5h-.6v9.5c0 .3-.2.5-.4.5H319c-.5-.1-.7-.2-.7-.5zm6.3-13.6c.5 0 .9-.4.9-.9v-5.7c0-.5-.4-.9-.9-.9h-2v7.6h2zM333.4 406.6v-24.8c0-.3.2-.5.5-.5h9.8c.2 0 .5.2.5.5v3.3c0 .3-.2.5-.5.5h-5.9v5.9h4.6c.2 0 .5.2.5.4v3.3c0 .2-.2.5-.5.5h-4.6v7.3h6.1c.2 0 .4.2.4.5v3.2c0 .3-.2.5-.4.5h-10c-.4-.2-.5-.3-.5-.6zM347.1 406.6v-24.8c0-.3.2-.5.5-.5h2.6c.3 0 .4.2.5.5l4 11.7v-11.7c0-.3.2-.5.4-.5h3.5c.2 0 .4.2.4.5v24.8c0 .3-.2.5-.4.5H356c-.2 0-.4-.2-.5-.5l-4.1-11.3v11.3c0 .3-.2.5-.4.5h-3.4c-.4-.1-.5-.2-.5-.5zM362.6 403.4v-18.5c0-2.1 1.7-3.8 3.8-3.8h3.9c2.1 0 3.8 1.6 3.8 3.8v2.4c0 .3-.2.5-.4.5h-3.4c-.3 0-.5-.2-.5-.5v-1c0-.5-.4-.9-.9-.9h-.9c-.5 0-1 .4-1 .9v16c0 .5.4.9 1 .9h1c.5 0 .9-.4.9-.9v-2.8c0-.3.2-.5.5-.5h3.4c.3 0 .5.2.5.5v4c0 2.1-1.7 3.8-3.8 3.8h-4.1a4 4 0 0 1-3.8-3.9zM377.6 406.6v-24.8c0-.3.2-.5.5-.5h9.8c.2 0 .5.2.5.5v3.3c0 .3-.2.5-.5.5H382v5.9h4.6c.2 0 .5.2.5.4v3.3c0 .2-.2.5-.5.5H382v7.3h6.1c.2 0 .4.2.4.5v3.2c0 .3-.2.5-.4.5h-10c-.3-.2-.5-.3-.5-.6zM420.2 403.4V401c0-.3.2-.5.5-.5h3.4c.2 0 .4.2.4.5v1c0 .5.4.9 1 .9h.6c.5 0 .9-.4.9-.9v-4.8h-3.4c-2 0-3.8-1.6-3.8-3.8v-8.6c0-2.1 1.7-3.8 3.8-3.8h4c2 0 3.8 1.6 3.8 3.8v18.5c0 2.1-1.7 3.8-3.8 3.8H424c-2 .1-3.8-1.6-3.8-3.7zm6.9-10.3v-7c0-.5-.4-.9-.9-.9h-1c-.5 0-1 .4-1 .9v6.1c0 .5.4.9 1 .9h1.9zM444.3 403.4v-3.6c0-.3.2-.5.5-.5h3.4c.3 0 .5.2.5.5v2.4c0 .5.4.9.9.9h.9c.5 0 .9-.4.9-.9v-5.5c0-.5-.4-.9-.9-.9h-2.4a3.8 3.8 0 0 1-3.8-3.8v-7.1c0-2.1 1.7-3.8 3.8-3.8h3.9c2 0 3.8 1.6 3.8 3.8v2.4c0 .3-.2.5-.5.5h-3.4c-.2 0-.5-.2-.5-.5v-1c0-.5-.4-.9-.9-.9h-.8c-.5 0-.9.4-.9.9v4.5c0 .5.4.9.9.9h2.5c2.1 0 3.8 1.6 3.8 3.8v8c0 2.1-1.7 3.8-3.8 3.8h-4a4 4 0 0 1-3.9-3.9zM459.3 406.6v-24.8c0-.3.2-.5.5-.5h9.8c.3 0 .5.2.5.5v3.3c0 .3-.2.5-.5.5h-5.9v5.9h4.6c.2 0 .5.2.5.4v3.3c0 .2-.2.5-.5.5h-4.6v7.3h6.1c.2 0 .4.2.4.5v3.2c0 .3-.2.5-.4.5h-10c-.4-.2-.5-.3-.5-.6zM473 406.6v-24.8c0-.3.2-.5.5-.5h7.4c2 0 3.8 1.7 3.8 3.8v8.2c0 2.1-1.7 3.8-3.8 3.8h-3.5v9.5c0 .3-.2.5-.4.5h-3.4c-.4-.1-.6-.2-.6-.5zm6.3-13.6c.5 0 .9-.4.9-.9v-5.7c0-.5-.4-.9-.9-.9h-2v7.6h2zM490.5 406.6v-21.1h-3.3c-.3 0-.5-.2-.5-.4v-3.3c0-.3.2-.5.5-.5h10.9c.2 0 .5.2.5.5v3.3c0 .2-.2.4-.5.4h-3.3v21.1c0 .3-.2.5-.4.5h-3.5c-.3-.1-.4-.2-.4-.5zM501.2 406.6v-24.8c0-.3.2-.5.5-.5h9.8c.3 0 .5.2.5.5v3.3c0 .3-.2.5-.5.5h-5.9v5.9h4.6c.2 0 .5.2.5.4v3.3c0 .2-.2.5-.5.5h-4.6v7.3h6.1c.2 0 .4.2.4.5v3.2c0 .3-.2.5-.4.5h-10c-.3-.2-.5-.3-.5-.6zM515 406.6v-24.8c0-.3.2-.5.5-.5h3.3c.2 0 .5.2.6.5l3.8 9.7 3.8-9.7c.1-.3.3-.5.5-.5h3.3c.2 0 .4.2.4.5v24.8c0 .3-.2.5-.4.5h-3.5c-.2 0-.4-.2-.4-.5v-13.9l-3.8 9.8-3.8-9.8v13.9c0 .3-.2.5-.4.5h-3.4c-.4-.1-.5-.2-.5-.5zM535.1 406.6v-24.8c0-.3.2-.5.5-.5h6.7c2 0 3.8 1.7 3.8 3.8v6.9a3 3 0 0 1-.4 1.6 4 4 0 0 1 1 2.5v7.1c0 2.1-1.7 3.8-3.8 3.8h-7.4c-.2 0-.4-.1-.4-.4zm5.8-14.5c.5 0 .8-.4.8-.9v-4.8c0-.5-.4-.9-.9-.9h-1.3v6.6h1.4zm.5 10.9c.5 0 .9-.4.9-1v-5.1c0-.5-.3-.9-.8-.9h-2.1v7h2zM549.9 406.6v-24.8c0-.3.2-.5.5-.5h9.8c.3 0 .5.2.5.5v3.3c0 .3-.2.5-.5.5h-5.9v5.9h4.6c.2 0 .5.2.5.4v3.3c0 .2-.2.5-.5.5h-4.6v7.3h6.1c.2 0 .4.2.4.5v3.2c0 .3-.2.5-.4.5h-10c-.3-.2-.5-.3-.5-.6zM563.7 406.6v-24.8c0-.3.2-.5.5-.5h7.4c2 0 3.8 1.7 3.8 3.8v8.2c0 1.6-1 2.9-2.4 3.5l2.6 9.8c.1.3 0 .5-.3.5h-3.7c-.2 0-.4-.2-.4-.5l-2.5-9.5h-.7v9.5c0 .3-.2.5-.4.5h-3.4c-.4-.1-.5-.2-.5-.5zm6.2-13.6c.5 0 .9-.4.9-.9v-5.7c0-.5-.4-.9-.9-.9h-2v7.6h2zM586.9 406.6v-3.7s7.3-13.2 7.3-15.5v-1.2c0-.5-.4-.9-.9-.9h-.7c-.5 0-.9.4-.9.9v.7c0 .3-.2.5-.5.5h-3.4c-.2 0-.5-.2-.5-.5v-2c0-2.1 1.7-3.8 3.8-3.8h3.7c2.1 0 3.8 1.6 3.8 3.8v2.5c0 2.3-7.1 15.5-7.1 15.5h6.7c.2 0 .4.2.4.5v3.2c0 .3-.2.5-.4.5h-10.7c-.4-.1-.6-.2-.6-.5zM600.9 403.4v-18.5c0-2.1 1.7-3.8 3.8-3.8h4c2 0 3.8 1.6 3.8 3.8v18.5c0 2.1-1.7 3.8-3.8 3.8h-4a3.8 3.8 0 0 1-3.8-3.8zm6.2-.2c.5 0 .9-.4.9-.9v-16c0-.5-.4-.9-.9-.9h-1c-.5 0-1 .4-1 .9v16c0 .5.4.9 1 .9h1zM614.7 406.6v-3.7s7.3-13.2 7.3-15.5v-1.2c0-.5-.4-.9-.9-.9h-.7c-.5 0-.9.4-.9.9v.7c0 .3-.2.5-.5.5h-3.4c-.2 0-.5-.2-.5-.5v-2c0-2.1 1.7-3.8 3.8-3.8h3.7c2.1 0 3.8 1.6 3.8 3.8v2.5c0 2.3-7.1 15.5-7.1 15.5h6.7c.2 0 .4.2.4.5v3.2c0 .3-.2.5-.4.5h-10.7c-.4-.1-.6-.2-.6-.5zM627.6 406.6v-3.7s7.3-13.2 7.3-15.5v-1.2c0-.5-.4-.9-.9-.9h-.7c-.5 0-.9.4-.9.9v.7c0 .3-.2.5-.5.5h-3.4c-.2 0-.5-.2-.5-.5v-2c0-2.1 1.7-3.8 3.8-3.8h3.7c2.1 0 3.8 1.6 3.8 3.8v2.5c0 2.3-7.1 15.5-7.1 15.5h6.7c.2 0 .4.2.4.5v3.2c0 .3-.2.5-.4.5H628c-.2-.1-.4-.2-.4-.5zM670.6 403.4v-21.7c0-.3.2-.5.5-.5h3.4c.3 0 .4.2.4.5v20.5c0 .5.4.9 1 .9h1c.5 0 .9-.4.9-.9v-20.5c0-.3.2-.5.5-.5h3.4c.3 0 .5.2.5.5v21.7c0 2.1-1.7 3.8-3.8 3.8h-4.1c-2 0-3.7-1.7-3.7-3.8zM688.6 406.6v-21.1h-3.3c-.3 0-.5-.2-.5-.4v-3.3c0-.3.2-.5.5-.5h10.9c.2 0 .5.2.5.5v3.3c0 .2-.2.4-.5.4h-3.3v21.1c0 .3-.2.5-.4.5H689c-.2-.1-.4-.2-.4-.5zM699.4 406.6v-24.8c0-.3.2-.5.5-.5h7.4c2 0 3.8 1.7 3.8 3.8v8.2c0 1.6-1 2.9-2.4 3.5l2.6 9.8c.1.3 0 .5-.3.5h-3.7c-.2 0-.4-.2-.4-.5l-2.5-9.5h-.6v9.5c0 .3-.2.5-.4.5H700c-.4-.1-.6-.2-.6-.5zm6.3-13.6c.5 0 .9-.4.9-.9v-5.7c0-.5-.4-.9-.9-.9h-2v7.6h2zM714.5 406.6v-24.8c0-.3.2-.5.5-.5h9.8c.3 0 .5.2.5.5v3.3c0 .3-.2.5-.5.5h-5.9v5.9h4.6c.2 0 .5.2.5.4v3.3c0 .2-.2.5-.5.5h-4.6v7.3h6.1c.2 0 .4.2.4.5v3.2c0 .3-.2.5-.4.5h-10c-.4-.2-.5-.3-.5-.6zM728 403.4v-18.5c0-2.1 1.7-3.8 3.8-3.8h3.9c2.1 0 3.8 1.6 3.8 3.8v2.4c0 .3-.2.5-.4.5h-3.4c-.3 0-.5-.2-.5-.5v-1c0-.5-.4-.9-.9-.9h-.9c-.5 0-1 .4-1 .9v16c0 .5.4.9 1 .9h1c.5 0 .9-.4.9-.9v-2.8c0-.3.2-.5.5-.5h3.4c.3 0 .5.2.5.5v4c0 2.1-1.7 3.8-3.8 3.8h-4.1a4 4 0 0 1-3.8-3.9zM743 406.6v-24.8c0-.3.2-.5.5-.5h3.4c.3 0 .4.2.4.5v9.6h3.2v-9.6c0-.3.2-.5.4-.5h3.5c.2 0 .4.2.4.5v24.8c0 .3-.2.5-.4.5h-3.5c-.2 0-.4-.2-.4-.5v-11h-3.2v11c0 .3-.2.5-.4.5h-3.4c-.4-.1-.5-.2-.5-.5zM761.2 406.6v-21.1h-3.3c-.3 0-.5-.2-.5-.4v-3.3c0-.3.2-.5.5-.5h10.9c.2 0 .5.2.5.5v3.3c0 .2-.2.4-.5.4h-3.3v21.1c0 .3-.2.5-.4.5h-3.5c-.2-.1-.4-.2-.4-.5z"/>
    <path fill="#e84667"
          d="M66.9 316.5V205.4c0-1.3.8-2.1 2.1-2.1h43.7a2 2 0 0 1 2.1 2.1V220a2 2 0 0 1-2.1 2.1H86.3v26.6H107c1.1 0 2.1.8 2.1 1.9v14.6c0 1.1-1 2.1-2.1 2.1H86.3v49.3c0 1.3-.8 2.1-1.9 2.1H69c-1.3-.1-2.1-.9-2.1-2.2M167 255.9c2.4 0 4.2-1.9 4.2-4.2v-25.6c0-2.2-1.8-4.2-4.2-4.2h-8.8v33.9h8.8zm-28.2 60.6V205.4c0-1.3.8-2.1 2.1-2.1h33c9.1 0 16.8 7.5 16.8 16.8V257c0 7.2-4.5 13.1-10.6 15.7l11.5 43.9c.3 1.3 0 2.1-1.1 2.1H174c-1.1 0-1.6-1-1.9-2.1l-11.2-42.7h-2.7v42.7c0 1.3-.8 2.1-1.9 2.1h-15.4c-1.3-.1-2.1-.9-2.1-2.2M246.7 301.3c2.4 0 4.2-1.9 4.2-4.2v-71.7c0-2.4-1.8-4.2-4.2-4.2h-4.8a4.2 4.2 0 0 0-4.3 4.2v71.7c0 2.2 1.9 4.2 4.3 4.2h4.8zm-28.5 1.1v-82.9c0-9.4 7.7-16.8 16.8-16.8h18.4c9.3 0 17 7.4 17 16.8v82.9a17 17 0 0 1-17 17H235a17 17 0 0 1-16.8-17M300 316.5V205.4c0-1.3.8-2.1 2.1-2.1h11.7c1.1 0 1.8 1 2.1 2.1l17.8 52.2v-52.2c0-1.3.8-2.1 1.9-2.1h15.5c1.1 0 1.9.8 1.9 2.1v111.1c0 1.3-.8 2.1-1.9 2.1h-11.2c-1.1 0-1.8-.8-2.2-2.1l-18.2-50.4v50.4c0 1.3-.8 2.1-1.9 2.1h-15.4c-1.4 0-2.2-.8-2.2-2.1M394.6 316.5v-94.6h-14.7c-1.1 0-2.1-.8-2.1-1.9v-14.6a2 2 0 0 1 2.1-2.1h49a2 2 0 0 1 2.1 2.1V220c0 1.1-1 1.9-2.1 1.9H414v94.6c0 1.3-.8 2.1-1.9 2.1h-15.5c-1.2 0-2-.8-2-2.1M455.8 316.5V205.4c0-1.3.8-2.1 2.1-2.1h43.7a2 2 0 0 1 2.1 2.1V220a2 2 0 0 1-2.1 2.1h-26.4v26.6h20.7c1.1 0 2.1.8 2.1 1.9v14.6c0 1.1-1 2.1-2.1 2.1h-20.7V300h27.4c1.1 0 1.9.8 1.9 2.1v14.4c0 1.3-.8 2.1-1.9 2.1h-44.7c-1.3 0-2.1-.8-2.1-2.1M530.1 316.5V205.4c0-1.3.8-2.1 2.1-2.1h43.7a2 2 0 0 1 2.1 2.1V220a2 2 0 0 1-2.1 2.1h-26.4v26.6h20.7c1.1 0 2.1.8 2.1 1.9v14.6c0 1.1-1 2.1-2.1 2.1h-20.7V300h27.4c1.1 0 1.9.8 1.9 2.1v14.4c0 1.3-.8 2.1-1.9 2.1h-44.7c-1.3 0-2.1-.8-2.1-2.1M632.5 255.9c2.4 0 4.2-1.9 4.2-4.2v-25.6c0-2.2-1.8-4.2-4.2-4.2h-8.8v33.9h8.8zm-28.1 60.6V205.4c0-1.3.8-2.1 2.1-2.1h33c9.1 0 16.8 7.5 16.8 16.8V257c0 7.2-4.5 13.1-10.6 15.7l11.5 43.9c.3 1.3 0 2.1-1.1 2.1h-16.5c-1.1 0-1.6-1-1.9-2.1l-11.2-42.7h-2.7v42.7c0 1.3-.8 2.1-1.9 2.1h-15.4c-1.3-.1-2.1-.9-2.1-2.2M682.2 302.4v-16.2a2 2 0 0 1 2.1-2.1h15.4c1.3 0 2.1.8 2.1 2.1v10.9c0 2.2 1.9 4.2 4.2 4.2h4.2c2.2 0 4.2-1.9 4.2-4.2v-24.7c0-2.2-1.9-4.2-4.2-4.2h-10.9a17 17 0 0 1-17-16.8v-32c0-9.4 7.7-16.8 17-16.8h17.5c9.1 0 16.8 7.4 16.8 16.8V230c0 1.3-.8 2.1-2.1 2.1h-15.4a2 2 0 0 1-2.1-2.1v-4.6c0-2.4-1.8-4.2-4.2-4.2H706a4.2 4.2 0 0 0-4.2 4.2v20.2c0 2.2 1.9 4.2 4.2 4.2h11.2c9.3 0 16.8 7.4 16.8 16.8v35.9c0 9.4-7.5 17-16.8 17h-18.1a17 17 0 0 1-16.9-17.1"/>
    <path fill="#f2969a"
          d="M74.3 323.9V212.8c0-1.3.8-2.1 2.1-2.1h43.7a2 2 0 0 1 2.1 2.1v14.6a2 2 0 0 1-2.1 2.1H93.7V256h20.7c1.1 0 2.1.8 2.1 1.9v14.6c0 1.1-1 2.1-2.1 2.1H93.7v49.3c0 1.3-.8 2.1-1.9 2.1H76.4c-1.3 0-2.1-.8-2.1-2.1M174.3 263.2c2.4 0 4.2-1.9 4.2-4.2v-25.6c0-2.2-1.8-4.2-4.2-4.2h-8.8v33.9h8.8zm-28.1 60.7V212.8c0-1.3.8-2.1 2.1-2.1h33c9.1 0 16.8 7.5 16.8 16.8v36.8c0 7.2-4.5 13.1-10.6 15.7l11.5 43.9c.3 1.3 0 2.1-1.1 2.1h-16.5c-1.1 0-1.6-1-1.9-2.1l-11.2-42.7h-2.7v42.7c0 1.3-.8 2.1-1.9 2.1h-15.4c-1.3 0-2.1-.8-2.1-2.1M254.1 308.7c2.4 0 4.2-1.9 4.2-4.2v-71.7c0-2.4-1.8-4.2-4.2-4.2h-4.8a4.2 4.2 0 0 0-4.3 4.2v71.7c0 2.2 1.9 4.2 4.3 4.2h4.8zm-28.5 1.1v-82.9c0-9.4 7.7-16.8 16.8-16.8h18.4c9.3 0 17 7.4 17 16.8v82.9a17 17 0 0 1-17 17h-18.4a17 17 0 0 1-16.8-17M307.4 323.9V212.8c0-1.3.8-2.1 2.1-2.1h11.7c1.1 0 1.8 1 2.1 2.1L341 265v-52.2c0-1.3.8-2.1 1.9-2.1h15.5c1.1 0 1.9.8 1.9 2.1v111.1c0 1.3-.8 2.1-1.9 2.1h-11.2c-1.1 0-1.8-.8-2.2-2.1l-18.2-50.4v50.4c0 1.3-.8 2.1-1.9 2.1h-15.4c-1.3 0-2.1-.8-2.1-2.1M402 323.9v-94.6h-14.7c-1.1 0-2.1-.8-2.1-1.9v-14.6a2 2 0 0 1 2.1-2.1h49a2 2 0 0 1 2.1 2.1v14.6c0 1.1-1 1.9-2.1 1.9h-14.9v94.6c0 1.3-.8 2.1-1.9 2.1H404c-1.2 0-2-.8-2-2.1M463.1 323.9V212.8c0-1.3.8-2.1 2.1-2.1h43.7a2 2 0 0 1 2.1 2.1v14.6a2 2 0 0 1-2.1 2.1h-26.4V256h20.7c1.1 0 2.1.8 2.1 1.9v14.6c0 1.1-1 2.1-2.1 2.1h-20.7v32.8h27.4c1.1 0 1.9.8 1.9 2.1v14.4c0 1.3-.8 2.1-1.9 2.1h-44.7c-1.3 0-2.1-.8-2.1-2.1M537.4 323.9V212.8c0-1.3.8-2.1 2.1-2.1h43.7a2 2 0 0 1 2.1 2.1v14.6a2 2 0 0 1-2.1 2.1h-26.4V256h20.7c1.1 0 2.1.8 2.1 1.9v14.6c0 1.1-1 2.1-2.1 2.1h-20.7v32.8h27.4c1.1 0 1.9.8 1.9 2.1v14.4c0 1.3-.8 2.1-1.9 2.1h-44.7c-1.3 0-2.1-.8-2.1-2.1M639.9 263.2c2.4 0 4.2-1.9 4.2-4.2v-25.6c0-2.2-1.8-4.2-4.2-4.2h-8.8v33.9h8.8zm-28.2 60.7V212.8c0-1.3.8-2.1 2.1-2.1h33c9.1 0 16.8 7.5 16.8 16.8v36.8c0 7.2-4.5 13.1-10.6 15.7l11.5 43.9c.3 1.3 0 2.1-1.1 2.1h-16.5c-1.1 0-1.6-1-1.9-2.1l-11.2-42.7h-2.7v42.7c0 1.3-.8 2.1-1.9 2.1h-15.4c-1.3 0-2.1-.8-2.1-2.1M689.5 309.8v-16.2a2 2 0 0 1 2.1-2.1H707c1.3 0 2.1.8 2.1 2.1v10.9c0 2.2 1.9 4.2 4.2 4.2h4.2c2.2 0 4.2-1.9 4.2-4.2v-24.7c0-2.2-1.9-4.2-4.2-4.2h-10.9a17 17 0 0 1-17-16.8v-32c0-9.4 7.7-16.8 17-16.8H724c9.1 0 16.8 7.4 16.8 16.8v10.6c0 1.3-.8 2.1-2.1 2.1h-15.4a2 2 0 0 1-2.1-2.1v-4.6c0-2.4-1.8-4.2-4.2-4.2h-3.7a4.2 4.2 0 0 0-4.2 4.2V253c0 2.2 1.9 4.2 4.2 4.2h11.2c9.3 0 16.8 7.4 16.8 16.8v35.9c0 9.4-7.5 17-16.8 17h-18.1a17.2 17.2 0 0 1-16.9-17.1"/>
    <path fill="#fad1b1"
          d="M81.6 331.2V220.1c0-1.3.8-2.1 2.1-2.1h43.7a2 2 0 0 1 2.1 2.1v14.6a2 2 0 0 1-2.1 2.1H101v26.6h20.7c1.1 0 2.1.8 2.1 1.9v14.6c0 1.1-1 2.1-2.1 2.1H101v49.3c0 1.3-.8 2.1-1.9 2.1H83.7c-1.3-.1-2.1-.9-2.1-2.2M181.7 270.6c2.4 0 4.2-1.9 4.2-4.2v-25.6c0-2.2-1.8-4.2-4.2-4.2h-8.8v33.9h8.8zm-28.2 60.6V220.1c0-1.3.8-2.1 2.1-2.1h33c9.1 0 16.8 7.5 16.8 16.8v36.8c0 7.2-4.5 13.1-10.6 15.7l11.5 43.9c.3 1.3 0 2.1-1.1 2.1h-16.5c-1.1 0-1.6-1-1.9-2.1l-11.2-42.7h-2.7v42.7c0 1.3-.8 2.1-1.9 2.1h-15.4c-1.3 0-2.1-.8-2.1-2.1M261.4 316c2.4 0 4.2-1.9 4.2-4.2v-71.7c0-2.4-1.8-4.2-4.2-4.2h-4.8a4.2 4.2 0 0 0-4.3 4.2v71.7c0 2.2 1.9 4.2 4.3 4.2h4.8zm-28.5 1.1v-82.9c0-9.4 7.7-16.8 16.8-16.8h18.4c9.3 0 17 7.4 17 16.8v82.9a17 17 0 0 1-17 17h-18.4a17 17 0 0 1-16.8-17M314.7 331.2V220.1c0-1.3.8-2.1 2.1-2.1h11.7c1.1 0 1.8 1 2.1 2.1l17.8 52.2v-52.2c0-1.3.8-2.1 1.9-2.1h15.5c1.1 0 1.9.8 1.9 2.1v111.1c0 1.3-.8 2.1-1.9 2.1h-11.2c-1.1 0-1.8-.8-2.2-2.1l-18.3-50.4v50.4c0 1.3-.8 2.1-1.9 2.1h-15.4c-1.3 0-2.1-.8-2.1-2.1M409.3 331.2v-94.6h-14.7c-1.1 0-2.1-.8-2.1-1.9v-14.6a2 2 0 0 1 2.1-2.1h49a2 2 0 0 1 2.1 2.1v14.6c0 1.1-1 1.9-2.1 1.9h-14.9v94.6c0 1.3-.8 2.1-1.9 2.1h-15.5c-1.2 0-2-.8-2-2.1M470.5 331.2V220.1c0-1.3.8-2.1 2.1-2.1h43.7a2 2 0 0 1 2.1 2.1v14.6a2 2 0 0 1-2.1 2.1h-26.4v26.6h20.7c1.1 0 2.1.8 2.1 1.9v14.6c0 1.1-1 2.1-2.1 2.1h-20.7v32.8h27.4c1.1 0 1.9.8 1.9 2.1v14.4c0 1.3-.8 2.1-1.9 2.1h-44.7c-1.3-.1-2.1-.9-2.1-2.2M544.8 331.2V220.1c0-1.3.8-2.1 2.1-2.1h43.7a2 2 0 0 1 2.1 2.1v14.6a2 2 0 0 1-2.1 2.1h-26.4v26.6h20.7c1.1 0 2.1.8 2.1 1.9v14.6c0 1.1-1 2.1-2.1 2.1h-20.7v32.8h27.4c1.1 0 1.9.8 1.9 2.1v14.4c0 1.3-.8 2.1-1.9 2.1h-44.7c-1.3-.1-2.1-.9-2.1-2.2"/>
    <g>
        <path fill="#fad1b1"
              d="M647.2 270.6c2.4 0 4.2-1.9 4.2-4.2v-25.6c0-2.2-1.8-4.2-4.2-4.2h-8.8v33.9h8.8zm-28.1 60.6V220.1c0-1.3.8-2.1 2.1-2.1h33c9.1 0 16.8 7.5 16.8 16.8v36.8c0 7.2-4.5 13.1-10.6 15.7l11.5 43.9c.3 1.3 0 2.1-1.1 2.1h-16.5c-1.1 0-1.6-1-1.9-2.1l-11.2-42.7h-2.7v42.7c0 1.3-.8 2.1-1.9 2.1h-15.4c-1.3 0-2.1-.8-2.1-2.1"/>
    </g>
    <g>
        <path fill="#fad1b1"
              d="M696.9 317.1V301a2 2 0 0 1 2.1-2.1h15.4c1.3 0 2.1.8 2.1 2.1v10.9c0 2.2 1.9 4.2 4.2 4.2h4.2c2.2 0 4.2-1.9 4.2-4.2v-24.7c0-2.2-1.9-4.2-4.2-4.2H714a17 17 0 0 1-17-16.8v-32c0-9.4 7.7-16.8 17-16.8h17.4c9.1 0 16.8 7.4 16.8 16.8v10.6c0 1.3-.8 2.1-2.1 2.1h-15.4a2 2 0 0 1-2.1-2.1v-4.6c0-2.4-1.8-4.2-4.2-4.2h-3.7a4.2 4.2 0 0 0-4.2 4.2v20.2c0 2.2 1.9 4.2 4.2 4.2h11.2c9.3 0 16.8 7.4 16.8 16.8v35.9c0 9.4-7.5 17-16.8 17h-18.1a17.2 17.2 0 0 1-16.9-17.2"/>
    </g>
    <g>
        <path fill="#cdc6aa"
              d="M89 338.6V227.5c0-1.3.8-2.1 2.1-2.1h43.7a2 2 0 0 1 2.1 2.1V242a2 2 0 0 1-2.1 2.1h-26.4v26.6H129c1.1 0 2.1.8 2.1 1.9v14.6c0 1.1-1 2.1-2.1 2.1h-20.7v49.3c0 1.3-.8 2.1-1.9 2.1H91.1c-1.3 0-2.1-.8-2.1-2.1"/>
    </g>
    <g>
        <path fill="#cdc6aa"
              d="M189 277.9c2.4 0 4.2-1.9 4.2-4.2v-25.6c0-2.2-1.8-4.2-4.2-4.2h-8.8v33.9h8.8zm-28.1 60.7V227.5c0-1.3.8-2.1 2.1-2.1h33c9.1 0 16.8 7.5 16.8 16.8V279c0 7.2-4.5 13.1-10.6 15.7l11.5 43.9c.3 1.3 0 2.1-1.1 2.1h-16.5c-1.1 0-1.6-1-1.9-2.1L183 295.8h-2.7v42.7c0 1.3-.8 2.1-1.9 2.1H163c-1.3.1-2.1-.7-2.1-2"/>
    </g>
    <g>
        <path fill="#cdc6aa"
              d="M268.8 323.4c2.4 0 4.2-1.9 4.2-4.2v-71.7c0-2.4-1.8-4.2-4.2-4.2H264a4.2 4.2 0 0 0-4.3 4.2v71.7c0 2.2 1.9 4.2 4.3 4.2h4.8zm-28.5 1.1v-82.9c0-9.4 7.7-16.8 16.8-16.8h18.4c9.3 0 17 7.4 17 16.8v82.9a17 17 0 0 1-17 17h-18.4a17 17 0 0 1-16.8-17"/>
    </g>
    <g>
        <path fill="#cdc6aa"
              d="M322.1 338.6V227.5c0-1.3.8-2.1 2.1-2.1h11.7c1.1 0 1.8 1 2.1 2.1l17.8 52.2v-52.2c0-1.3.8-2.1 1.9-2.1h15.5c1.1 0 1.9.8 1.9 2.1v111.1c0 1.3-.8 2.1-1.9 2.1H362c-1.1 0-1.8-.8-2.2-2.1l-18.2-50.4v50.4c0 1.3-.8 2.1-1.9 2.1h-15.4c-1.4 0-2.2-.8-2.2-2.1"/>
    </g>
    <g>
        <path fill="#cdc6aa"
              d="M416.7 338.6V244H402c-1.1 0-2.1-.8-2.1-1.9v-14.6a2 2 0 0 1 2.1-2.1h49a2 2 0 0 1 2.1 2.1V242c0 1.1-1 1.9-2.1 1.9h-14.9v94.6c0 1.3-.8 2.1-1.9 2.1h-15.5c-1.2.1-2-.7-2-2"/>
    </g>
    <g>
        <path fill="#cdc6aa"
              d="M477.8 338.6V227.5c0-1.3.8-2.1 2.1-2.1h43.7a2 2 0 0 1 2.1 2.1V242a2 2 0 0 1-2.1 2.1h-26.4v26.6h20.7c1.1 0 2.1.8 2.1 1.9v14.6c0 1.1-1 2.1-2.1 2.1h-20.7v32.8h27.4c1.1 0 1.9.8 1.9 2.1v14.4c0 1.3-.8 2.1-1.9 2.1h-44.7c-1.3 0-2.1-.8-2.1-2.1"/>
    </g>
    <g>
        <path fill="#cdc6aa"
              d="M552.1 338.6V227.5c0-1.3.8-2.1 2.1-2.1h43.7a2 2 0 0 1 2.1 2.1V242a2 2 0 0 1-2.1 2.1h-26.4v26.6h20.7c1.1 0 2.1.8 2.1 1.9v14.6c0 1.1-1 2.1-2.1 2.1h-20.7v32.8h27.4c1.1 0 1.9.8 1.9 2.1v14.4c0 1.3-.8 2.1-1.9 2.1h-44.7c-1.3 0-2.1-.8-2.1-2.1"/>
    </g>
    <g>
        <path fill="#cdc6aa"
              d="M654.6 277.9c2.4 0 4.2-1.9 4.2-4.2v-25.6c0-2.2-1.8-4.2-4.2-4.2h-8.8v33.9h8.8zm-28.2 60.7V227.5c0-1.3.8-2.1 2.1-2.1h33c9.1 0 16.8 7.5 16.8 16.8V279c0 7.2-4.5 13.1-10.6 15.7l11.5 43.9c.3 1.3 0 2.1-1.1 2.1h-16.5c-1.1 0-1.6-1-1.9-2.1l-11.2-42.7h-2.7v42.7c0 1.3-.8 2.1-1.9 2.1h-15.4c-1.3 0-2.1-.8-2.1-2.1"/>
    </g>
    <g>
        <path fill="#cdc6aa"
              d="M704.2 324.5v-16.2a2 2 0 0 1 2.1-2.1h15.4c1.3 0 2.1.8 2.1 2.1v10.9c0 2.2 1.9 4.2 4.2 4.2h4.2c2.2 0 4.2-1.9 4.2-4.2v-24.7c0-2.2-1.9-4.2-4.2-4.2h-10.9a17 17 0 0 1-17-16.8v-32c0-9.4 7.7-16.8 17-16.8h17.5c9.1 0 16.8 7.4 16.8 16.8v10.6c0 1.3-.8 2.1-2.1 2.1H738a2 2 0 0 1-2.1-2.1v-4.6c0-2.4-1.8-4.2-4.2-4.2H728a4.2 4.2 0 0 0-4.2 4.2v20.2c0 2.2 1.9 4.2 4.2 4.2h11.2c9.3 0 16.8 7.4 16.8 16.8v35.9c0 9.4-7.5 17-16.8 17h-18.1a17.2 17.2 0 0 1-16.9-17.1"/>
    </g>
    <g>
        <path fill="#83ae9b"
              d="M96.3 345.9V234.8c0-1.3.8-2.1 2.1-2.1h43.7a2 2 0 0 1 2.1 2.1v14.6a2 2 0 0 1-2.1 2.1h-26.4v26.6h20.7c1.1 0 2.1.8 2.1 1.9v14.6c0 1.1-1 2.1-2.1 2.1h-20.7V346c0 1.3-.8 2.1-1.9 2.1H98.4c-1.3-.1-2.1-.9-2.1-2.2"/>
    </g>
    <g>
        <path fill="#83ae9b"
              d="M196.4 285.3c2.4 0 4.2-1.9 4.2-4.2v-25.6c0-2.2-1.8-4.2-4.2-4.2h-8.8v33.9h8.8zm-28.2 60.6V234.8c0-1.3.8-2.1 2.1-2.1h33c9.1 0 16.8 7.5 16.8 16.8v36.8c0 7.2-4.5 13.1-10.6 15.7l11.5 43.9c.3 1.3 0 2.1-1.1 2.1h-16.5c-1.1 0-1.6-1-1.9-2.1l-11.2-42.7h-2.7v42.7c0 1.3-.8 2.1-1.9 2.1h-15.4c-1.3 0-2.1-.8-2.1-2.1"/>
    </g>
    <g>
        <path fill="#83ae9b"
              d="M276.1 330.7c2.4 0 4.2-1.9 4.2-4.2v-71.7c0-2.4-1.8-4.2-4.2-4.2h-4.8a4.2 4.2 0 0 0-4.3 4.2v71.7c0 2.2 1.9 4.2 4.3 4.2h4.8zm-28.5 1.1v-82.9c0-9.4 7.7-16.8 16.8-16.8h18.4c9.3 0 17 7.4 17 16.8v82.9a17 17 0 0 1-17 17h-18.4a17 17 0 0 1-16.8-17"/>
    </g>
    <g>
        <path fill="#83ae9b"
              d="M329.4 345.9V234.8c0-1.3.8-2.1 2.1-2.1h11.7c1.1 0 1.8 1 2.1 2.1l17.8 52.2v-52.2c0-1.3.8-2.1 1.9-2.1h15.5c1.1 0 1.9.8 1.9 2.1v111.1c0 1.3-.8 2.1-1.9 2.1h-11.2c-1.1 0-1.8-.8-2.2-2.1l-18.3-50.4v50.4c0 1.3-.8 2.1-1.9 2.1h-15.4c-1.3 0-2.1-.8-2.1-2.1"/>
    </g>
    <g>
        <path fill="#83ae9b"
              d="M424 345.9v-94.6h-14.7c-1.1 0-2.1-.8-2.1-1.9v-14.6a2 2 0 0 1 2.1-2.1h49a2 2 0 0 1 2.1 2.1v14.6c0 1.1-1 1.9-2.1 1.9h-14.9v94.6c0 1.3-.8 2.1-1.9 2.1H426c-1.2 0-2-.8-2-2.1"/>
    </g>
    <g>
        <path fill="#83ae9b"
              d="M485.2 345.9V234.8c0-1.3.8-2.1 2.1-2.1H531a2 2 0 0 1 2.1 2.1v14.6a2 2 0 0 1-2.1 2.1h-26.4v26.6h20.7c1.1 0 2.1.8 2.1 1.9v14.6c0 1.1-1 2.1-2.1 2.1h-20.7v32.8H532c1.1 0 1.9.8 1.9 2.1V346c0 1.3-.8 2.1-1.9 2.1h-44.7c-1.3-.1-2.1-.9-2.1-2.2"/>
    </g>
    <g>
        <path fill="#83ae9b"
              d="M559.5 345.9V234.8c0-1.3.8-2.1 2.1-2.1h43.7a2 2 0 0 1 2.1 2.1v14.6a2 2 0 0 1-2.1 2.1h-26.4v26.6h20.7c1.1 0 2.1.8 2.1 1.9v14.6c0 1.1-1 2.1-2.1 2.1h-20.7v32.8h27.4c1.1 0 1.9.8 1.9 2.1V346c0 1.3-.8 2.1-1.9 2.1h-44.7c-1.3-.1-2.1-.9-2.1-2.2"/>
    </g>
    <g>
        <path fill="#83ae9b"
              d="M661.9 285.3c2.4 0 4.2-1.9 4.2-4.2v-25.6c0-2.2-1.8-4.2-4.2-4.2h-8.8v33.9h8.8zm-28.1 60.6V234.8c0-1.3.8-2.1 2.1-2.1h33c9.1 0 16.8 7.5 16.8 16.8v36.8c0 7.2-4.5 13.1-10.6 15.7l11.5 43.9c.3 1.3 0 2.1-1.1 2.1H669c-1.1 0-1.6-1-1.9-2.1l-11.2-42.7h-2.7v42.7c0 1.3-.8 2.1-1.9 2.1h-15.4c-1.3 0-2.1-.8-2.1-2.1"/>
    </g>
    <g>
        <path fill="#83ae9b"
              d="M711.6 331.8v-16.2a2 2 0 0 1 2.1-2.1H729c1.3 0 2.1.8 2.1 2.1v10.9c0 2.2 1.9 4.2 4.2 4.2h4.2c2.2 0 4.2-1.9 4.2-4.2v-24.7c0-2.2-1.9-4.2-4.2-4.2h-10.9a17 17 0 0 1-17-16.8v-32c0-9.4 7.7-16.8 17-16.8H746c9.1 0 16.8 7.4 16.8 16.8v10.6c0 1.3-.8 2.1-2.1 2.1h-15.4a2 2 0 0 1-2.1-2.1v-4.6c0-2.4-1.8-4.2-4.2-4.2h-3.7a4.2 4.2 0 0 0-4.2 4.2V275c0 2.2 1.9 4.2 4.2 4.2h11.2c9.3 0 16.8 7.4 16.8 16.8v35.9c0 9.4-7.5 17-16.8 17h-18.1a17 17 0 0 1-16.8-17.1"/>
    </g>
    <g>
        <path class="st0"
              d="M103.7 353.3V242.2c0-1.3.8-2.1 2.1-2.1h43.7a2 2 0 0 1 2.1 2.1v14.6a2 2 0 0 1-2.1 2.1h-26.4v26.6h20.7c1.1 0 2.1.8 2.1 1.9V302c0 1.1-1 2.1-2.1 2.1h-20.7v49.3c0 1.3-.8 2.1-1.9 2.1h-15.4c-1.3-.1-2.1-.9-2.1-2.2"/>
    </g>
    <g>
        <path class="st0"
              d="M203.8 292.6c2.4 0 4.2-1.9 4.2-4.2v-25.6c0-2.2-1.8-4.2-4.2-4.2H195v33.9h8.8zm-28.2 60.7V242.2c0-1.3.8-2.1 2.1-2.1h33c9.1 0 16.8 7.5 16.8 16.8v36.8c0 7.2-4.5 13.1-10.6 15.7l11.5 43.9c.3 1.3 0 2.1-1.1 2.1h-16.5c-1.1 0-1.6-1-1.9-2.1l-11.2-42.7H195v42.7c0 1.3-.8 2.1-1.9 2.1h-15.4c-1.3 0-2.1-.8-2.1-2.1"/>
    </g>
    <g>
        <path class="st0"
              d="M283.5 338.1c2.4 0 4.2-1.9 4.2-4.2v-71.7c0-2.4-1.8-4.2-4.2-4.2h-4.8a4.2 4.2 0 0 0-4.3 4.2v71.7c0 2.2 1.9 4.2 4.3 4.2h4.8zm-28.5 1.1v-82.9c0-9.4 7.7-16.8 16.8-16.8h18.4c9.3 0 17 7.4 17 16.8v82.9a17 17 0 0 1-17 17h-18.4a17 17 0 0 1-16.8-17"/>
    </g>
    <g>
        <path class="st0"
              d="M336.8 353.3V242.2c0-1.3.8-2.1 2.1-2.1h11.7c1.1 0 1.8 1 2.1 2.1l17.8 52.2v-52.2c0-1.3.8-2.1 1.9-2.1h15.5c1.1 0 1.9.8 1.9 2.1v111.1c0 1.3-.8 2.1-1.9 2.1h-11.2c-1.1 0-1.8-.8-2.2-2.1l-18.3-50.4v50.4c0 1.3-.8 2.1-1.9 2.1h-15.4c-1.3 0-2.1-.8-2.1-2.1"/>
    </g>
    <g>
        <path class="st0"
              d="M431.4 353.3v-94.6h-14.7c-1.1 0-2.1-.8-2.1-1.9v-14.6a2 2 0 0 1 2.1-2.1h49a2 2 0 0 1 2.1 2.1v14.6c0 1.1-1 1.9-2.1 1.9h-14.9v94.6c0 1.3-.8 2.1-1.9 2.1h-15.5c-1.2 0-2-.8-2-2.1"/>
    </g>
    <g>
        <path class="st0"
              d="M492.6 353.3V242.2c0-1.3.8-2.1 2.1-2.1h43.7a2 2 0 0 1 2.1 2.1v14.6a2 2 0 0 1-2.1 2.1H512v26.6h20.7c1.1 0 2.1.8 2.1 1.9V302c0 1.1-1 2.1-2.1 2.1H512v32.8h27.4c1.1 0 1.9.8 1.9 2.1v14.4c0 1.3-.8 2.1-1.9 2.1h-44.7c-1.3-.1-2.1-.9-2.1-2.2"/>
    </g>
    <g>
        <path class="st0"
              d="M566.8 353.3V242.2c0-1.3.8-2.1 2.1-2.1h43.7a2 2 0 0 1 2.1 2.1v14.6a2 2 0 0 1-2.1 2.1h-26.4v26.6h20.7c1.1 0 2.1.8 2.1 1.9V302c0 1.1-1 2.1-2.1 2.1h-20.7v32.8h27.4c1.1 0 1.9.8 1.9 2.1v14.4c0 1.3-.8 2.1-1.9 2.1h-44.7c-1.3-.1-2.1-.9-2.1-2.2"/>
    </g>
    <g>
        <path class="st0"
              d="M669.3 292.6c2.4 0 4.2-1.9 4.2-4.2v-25.6c0-2.2-1.8-4.2-4.2-4.2h-8.8v33.9h8.8zm-28.2 60.7V242.2c0-1.3.8-2.1 2.1-2.1h33c9.1 0 16.8 7.5 16.8 16.8v36.8c0 7.2-4.5 13.1-10.6 15.7l11.5 43.9c.3 1.3 0 2.1-1.1 2.1h-16.5c-1.1 0-1.6-1-1.9-2.1l-11.2-42.7h-2.7v42.7c0 1.3-.8 2.1-1.9 2.1h-15.4c-1.3 0-2.1-.8-2.1-2.1"/>
    </g>
    <g>
        <path class="st0"
              d="M718.9 339.2V323a2 2 0 0 1 2.1-2.1h15.4c1.3 0 2.1.8 2.1 2.1v10.9c0 2.2 1.9 4.2 4.2 4.2h4.2c2.2 0 4.2-1.9 4.2-4.2v-24.7c0-2.2-1.9-4.2-4.2-4.2H736a17 17 0 0 1-17-16.8v-32c0-9.4 7.7-16.8 17-16.8h17.5c9.1 0 16.8 7.4 16.8 16.8v10.6c0 1.3-.8 2.1-2.1 2.1h-15.4a2 2 0 0 1-2.1-2.1v-4.6c0-2.4-1.8-4.2-4.2-4.2h-3.7a4.2 4.2 0 0 0-4.2 4.2v20.2c0 2.2 1.9 4.2 4.2 4.2H754c9.3 0 16.8 7.4 16.8 16.8v35.9c0 9.4-7.5 17-16.8 17h-18.1c-9.3-.1-17-7.7-17-17.1"/>
    </g>
    <g>
        <path fill="#fff"
              d="M110.4 360V248.8c0-1.3.8-2.1 2.1-2.1h43.7a2 2 0 0 1 2.1 2.1v14.6a2 2 0 0 1-2.1 2.1h-26.4v26.6h20.7c1.1 0 2.1.8 2.1 1.9v14.6c0 1.1-1 2.1-2.1 2.1h-20.7V360c0 1.3-.8 2.1-1.9 2.1h-15.4c-1.3-.1-2.1-.9-2.1-2.1"/>
    </g>
    <g>
        <path fill="#fff"
              d="M210.4 299.3c2.4 0 4.2-1.9 4.2-4.2v-25.6c0-2.2-1.8-4.2-4.2-4.2h-8.8v33.9h8.8zM182.2 360V248.8c0-1.3.8-2.1 2.1-2.1h33c9.1 0 16.8 7.5 16.8 16.8v36.8c0 7.2-4.5 13.1-10.6 15.7l11.5 43.9c.3 1.3 0 2.1-1.1 2.1h-16.5c-1.1 0-1.6-1-1.9-2.1l-11.2-42.7h-2.7V360c0 1.3-.8 2.1-1.9 2.1h-15.4c-1.3-.1-2.1-.9-2.1-2.1"/>
    </g>
    <g>
        <path fill="#fff"
              d="M290.1 344.7c2.4 0 4.2-1.9 4.2-4.2v-71.7c0-2.4-1.8-4.2-4.2-4.2h-4.8a4.2 4.2 0 0 0-4.3 4.2v71.7c0 2.2 1.9 4.2 4.3 4.2h4.8zm-28.5 1.2V263c0-9.4 7.7-16.8 16.8-16.8h18.4c9.3 0 17 7.4 17 16.8v82.9a17 17 0 0 1-17 17h-18.4a17 17 0 0 1-16.8-17"/>
    </g>
    <g>
        <path fill="#fff"
              d="M343.5 360V248.8c0-1.3.8-2.1 2.1-2.1h11.7c1.1 0 1.8 1 2.1 2.1l17.8 52.2v-52.2c0-1.3.8-2.1 1.9-2.1h15.5c1.1 0 1.9.8 1.9 2.1V360c0 1.3-.8 2.1-1.9 2.1h-11.2c-1.1 0-1.8-.8-2.2-2.1l-18.3-50.4V360c0 1.3-.8 2.1-1.9 2.1h-15.4c-1.3-.1-2.1-.9-2.1-2.1"/>
    </g>
    <g>
        <path fill="#fff"
              d="M438.1 360v-94.6h-14.7c-1.1 0-2.1-.8-2.1-1.9v-14.6a2 2 0 0 1 2.1-2.1h49a2 2 0 0 1 2.1 2.1v14.6c0 1.1-1 1.9-2.1 1.9h-14.9V360c0 1.3-.8 2.1-1.9 2.1H440a2 2 0 0 1-1.9-2.1"/>
    </g>
    <g>
        <path fill="#fff"
              d="M499.2 360V248.8c0-1.3.8-2.1 2.1-2.1H545a2 2 0 0 1 2.1 2.1v14.6a2 2 0 0 1-2.1 2.1h-26.4v26.6h20.7c1.1 0 2.1.8 2.1 1.9v14.6c0 1.1-1 2.1-2.1 2.1h-20.7v32.8H546c1.1 0 1.9.8 1.9 2.1V360c0 1.3-.8 2.1-1.9 2.1h-44.7c-1.3-.1-2.1-.9-2.1-2.1"/>
    </g>
    <g>
        <path fill="#fff"
              d="M573.5 360V248.8c0-1.3.8-2.1 2.1-2.1h43.7a2 2 0 0 1 2.1 2.1v14.6a2 2 0 0 1-2.1 2.1h-26.4v26.6h20.7c1.1 0 2.1.8 2.1 1.9v14.6c0 1.1-1 2.1-2.1 2.1h-20.7v32.8h27.4c1.1 0 1.9.8 1.9 2.1V360c0 1.3-.8 2.1-1.9 2.1h-44.7c-1.3-.1-2.1-.9-2.1-2.1"/>
    </g>
    <g>
        <path fill="#fff"
              d="M676 299.3c2.4 0 4.2-1.9 4.2-4.2v-25.6c0-2.2-1.8-4.2-4.2-4.2h-8.8v33.9h8.8zM647.8 360V248.8c0-1.3.8-2.1 2.1-2.1h33c9.1 0 16.8 7.5 16.8 16.8v36.8c0 7.2-4.5 13.1-10.6 15.7l11.5 43.9c.3 1.3 0 2.1-1.1 2.1H683c-1.1 0-1.6-1-1.9-2.1l-11.2-42.7h-2.7V360c0 1.3-.8 2.1-1.9 2.1h-15.4c-1.3-.1-2.1-.9-2.1-2.1"/>
    </g>
    <g>
        <path fill="#fff"
              d="M725.6 345.9v-16.2a2 2 0 0 1 2.1-2.1H743c1.3 0 2.1.8 2.1 2.1v10.9c0 2.2 1.9 4.2 4.2 4.2h4.2c2.2 0 4.2-1.9 4.2-4.2v-24.7c0-2.2-1.9-4.2-4.2-4.2h-10.9a17 17 0 0 1-17-16.8v-32c0-9.4 7.7-16.8 17-16.8H760c9.1 0 16.8 7.4 16.8 16.8v10.6c0 1.3-.8 2.1-2.1 2.1h-15.4a2 2 0 0 1-2.1-2.1v-4.6c0-2.4-1.8-4.2-4.2-4.2h-3.7a4.2 4.2 0 0 0-4.2 4.2V289c0 2.2 1.9 4.2 4.2 4.2h11.2c9.3 0 16.8 7.4 16.8 16.8v35.9c0 9.4-7.5 17-16.8 17h-18.1a17 17 0 0 1-16.8-17"/>
    </g>
</svg>
